Coordinates
version=1
nRows=9
nColumns=36
inDegrees=yes

Units are S.I. units (second, meters, Newtons, ...)
If the header above contains a line with 'inDegrees', this indicates whether rotational values are in degrees (yes) or radians (no).

endheader
time	pelvis_tilt	pelvis_list	pelvis_rotation	pelvis_tx	pelvis_ty	pelvis_tz	hip_flexion_r	hip_adduction_r	hip_rotation_r	knee_angle_r	knee_angle_r_beta	ankle_angle_r	subtalar_angle_r	mtp_angle_r	hip_flexion_l	hip_adduction_l	hip_rotation_l	knee_angle_l	knee_angle_l_beta	ankle_angle_l	subtalar_angle_l	mtp_angle_l	lumbar_extension	lumbar_bending	lumbar_rotation	arm_flex_r	arm_add_r	arm_rot_r	elbow_flex_r	pro_sup_r	arm_flex_l	arm_add_l	arm_rot_l	elbow_flex_l	pro_sup_l
      1.48000000	     -0.00645416	      2.80900626	      1.13024090	     -0.29136509	      0.75809014	     -0.58079705	     57.76754464	     -8.00681034	     -3.98703660	     98.84883503	      1.72523763	     31.78387624	    -15.32092219	     -7.45746761	     61.91984728	     -3.21189969	     -0.50683005	     96.49890718	      1.68422365	     24.58136959	     -3.49128400	     -7.45746761	    -35.77468361	      1.93209801	     -6.00435110	     -6.41354134	    -12.68817041	    -21.52060035	     98.09873503	     99.34424734	    -11.04107305	    -11.52104710	    -10.82171730	    116.68661415	     95.50451226
      1.49000000	     -0.21515672	      2.83585588	      1.32109361	     -0.28874932	      0.74395547	     -0.58222634	     59.27746449	     -8.06243254	     -3.38441878	    101.56120738	      1.77257746	     33.61631675	    -14.15133981	     -7.45979382	     63.72362391	     -2.66168472	     -0.20538157	     99.18378909	      1.73108368	     25.06076894	     -4.14988846	     -7.45979382	    -36.42674610	      2.12868113	     -7.78922904	     -0.42138905	    -13.38949515	    -17.01008623	     95.58112936	    102.36872506	     -9.13356649	    -12.44994915	    -11.51520596	    116.63882524	     96.79886920
      1.50000000	     -0.53050806	      2.85641421	      1.43893889	     -0.28650764	      0.73110901	     -0.58321347	     60.69055873	     -8.03363133	     -2.90911705	    103.79739187	      1.81160624	     34.56825874	    -14.29918821	     -7.46906256	     65.35595847	     -2.31877851	     -0.06266308	    101.47974243	      1.77115563	     25.87924658	     -4.64718376	     -7.46906256	    -36.98538207	      2.28923453	     -8.40141403	      4.54108072	    -13.59704742	    -14.25166055	     93.57901103	    108.57067180	     -6.38399069	    -13.73682187	    -11.12534743	    115.85499373	    100.84799619
      1.51000000	     -1.00325260	      2.96204530	      1.45238779	     -0.28457975	      0.71914908	     -0.58380060	     62.14711340	     -7.98431102	     -2.38200878	    105.78459107	      1.84628941	     35.99481482	    -13.88217913	     -7.47057065	     66.89952022	     -2.12883558	     -0.09459756	    103.45797971	      1.80568238	     26.93633280	     -4.88819818	     -7.47057065	    -37.36715670	      2.26823703	     -8.79784582	      9.22259783	    -13.60373891	    -11.44900986	     91.98918784	    108.36780493	     -3.64489081	    -15.02464369	    -10.52135438	    115.62644553	    101.02551570
      1.52000000	     -1.53238966	      3.02075804	      1.41056970	     -0.28275837	      0.70831509	     -0.58423031	     63.50157099	     -7.86852169	     -2.00089469	    107.42994262	      1.87500621	     36.92674566	    -14.09434613	     -7.47102379	     68.28181411	     -2.05190790	     -0.14771798	    105.13431009	      1.83493987	     28.01282686	     -5.29104862	     -7.47102379	    -37.61519673	      2.21128665	     -8.54659476	     13.34419131	    -13.51901190	     -9.54121145	     90.53448208	    108.21741883	     -0.44445352	    -16.24525405	     -9.23733816	    115.01741710	    101.02653785
      1.53000000	     -1.99196038	      2.97881598	      1.38115804	     -0.28082585	      0.69873453	     -0.58477477	     64.56738947	     -7.78304172	     -1.76522038	    108.87038127	      1.90014661	     38.37802064	    -13.51265880	     -7.47219779	     69.39543342	     -2.00818084	     -0.11610616	    106.58493660	      1.86025808	     29.43955403	     -5.24870724	     -7.47219779	    -37.86900106	      2.30132269	     -8.81189081	     17.95956717	    -13.11094652	     -7.04906820	     88.38635793	    108.04054952	      1.98871434	    -17.22714225	     -8.97451210	    114.68034139	    101.13335192
      1.54000000	     -2.38381184	      2.86105248	      1.25967992	     -0.27883162	      0.69065661	     -0.58512178	     65.45056115	     -7.56291607	     -1.65517791	    110.03433001	      1.92046135	     39.09534330	    -13.78261699	     -7.47242927	     70.23042132	     -2.06695528	     -0.08494696	    107.74694706	      1.88053899	     30.68455295	     -5.92046668	     -7.47242927	    -38.14144789	      2.37505600	     -8.22415259	     21.75770743	    -12.55293444	     -5.93738403	     86.67825379	    107.96102203	      5.01478446	    -17.92264664	     -7.99584359	    113.69838857	    101.09291685
      1.55000000	     -2.70678419	      2.69900965	      1.11020785	     -0.27687978	      0.68392630	     -0.58542147	     66.25241539	     -7.33298134	     -1.56106774	    111.11943106	      1.93939993	     39.73801899	    -13.39894953	     -7.47358405	     70.89026484	     -2.15219074	      0.06291614	    108.73829739	      1.89784131	     31.84868696	     -5.79681652	     -7.47358405	    -38.42829080	      2.49804828	     -7.97914624	     25.73578446	    -11.86300554	     -4.21252505	     84.35831751	    107.95499452	      7.38699954	    -18.37208817	     -7.80647279	    112.85754726	    100.98808450
      1.56000000	     -3.02737916	      2.56923910	      0.93518069	     -0.27511136	      0.67854921	     -0.58560024	     67.13327352	     -7.06243149	     -1.42717883	    112.07790172	      1.95612840	     39.67827798	    -13.43126812	     -7.47379433	     71.51452794	     -2.20545118	      0.17412691	    109.57478667	      1.91244080	     32.52826608	     -6.24263027	     -7.47379433	    -38.74737484	      2.55335250	     -7.33635855	     28.95967672	    -10.97887030	     -3.78157980	     82.79018361	    107.94323480	      9.91368343	    -18.56429878	     -7.31390779	    111.71198870	    100.84988546
